# Blender 4.3.2
# www.blender.org
o mountain2
v 0.790462 -0.457519 0.790462
v -0.790462 -0.457519 0.790462
v 0.790462 -0.457519 -0.790462
v -0.790462 -0.457519 -0.790462
v -0.230238 -0.256255 -0.305179
v 0.020094 0.017288 -0.342672
v 0.278154 0.206744 -0.248552
v -0.246610 0.009566 0.048507
v -0.040955 0.106697 -0.034626
v 0.273356 0.083152 0.076538
v -0.312876 0.049639 0.310407
v 0.387155 -0.019214 0.222269
v 0.018661 0.158854 0.452309
v 0.185302 0.157097 0.248910
v -0.023078 0.181600 0.077389
v -0.174343 0.162874 0.293959
v 0.040209 0.211230 0.359648
v -0.014349 0.212169 0.366259
v 0.008849 0.234958 0.311109
v 0.092957 0.214005 0.231084
v 0.099139 0.210609 0.287719
v 0.044964 0.235666 0.265602
v -0.035245 0.223583 0.177137
v 0.019037 0.222697 0.170239
v -0.000313 0.239918 0.228335
v -0.082207 0.213583 0.310585
v -0.088778 0.216956 0.253783
v -0.034419 0.236997 0.275606
v 0.521738 -0.230162 0.544009
v 0.626345 -0.263388 0.622669
v -0.454286 -0.235138 0.526078
v -0.543203 -0.250830 0.609110
v 0.596126 -0.190517 -0.588988
v 0.707619 -0.326551 -0.707134
v -0.597808 -0.240526 -0.495521
v -0.696329 -0.286722 -0.598428
v 0.269807 -0.169310 0.604252
v 0.228335 -0.246790 0.684723
v 0.027793 0.027356 0.606925
v 0.028461 -0.095962 0.657860
v -0.303299 -0.316484 0.671179
v -0.312965 -0.206257 0.593143
v -0.559347 -0.183073 0.310201
v -0.666463 -0.259364 0.319725
v -0.522319 -0.137161 -0.006674
v -0.608923 -0.226028 -0.015733
v -0.589855 -0.285803 -0.241312
v -0.555861 -0.242005 -0.299867
v -0.200722 -0.247022 -0.562926
v -0.209594 -0.301324 -0.670050
v 0.006539 -0.141049 -0.553752
v 0.020542 -0.230899 -0.643169
v 0.293203 -0.145040 -0.613884
v 0.295509 -0.036220 -0.546866
v 0.565199 -0.026450 -0.304029
v 0.608529 -0.131402 -0.306038
v 0.509930 -0.100202 0.027660
v 0.611819 -0.170996 0.000449
v 0.696878 -0.363198 0.285684
v 0.604312 -0.247888 0.278810
vn -0.5111 0.6656 0.5438
vn -0.5447 0.6612 0.5158
vn -0.6119 0.6477 0.4540
vn 0.4166 0.7636 -0.4934
vn 0.4167 0.7635 -0.4935
vn 0.3621 0.8243 -0.4353
vn 0.0349 0.9993 0.0152
vn 0.0289 0.9992 0.0267
vn 0.0229 0.9990 0.0384
vn 0.5305 0.7935 0.2983
vn 0.4784 0.8127 0.3327
vn 0.6935 0.7004 0.1691
vn -0.0000 -1.0000 -0.0000
vn 0.1220 0.0746 0.9897
vn -0.0735 0.8624 0.5009
vn -0.0042 0.7648 0.6442
vn -0.0210 0.5396 -0.8417
vn -0.0187 0.5324 -0.8463
vn 0.0216 0.6118 -0.7907
vn 0.6555 0.7482 0.1022
vn 0.6697 0.7333 0.1173
vn 0.6197 0.7821 0.0655
vn 0.5920 0.6596 0.4630
vn 0.5613 0.6685 0.4879
vn 0.5808 0.6663 0.4677
vn -0.2922 0.7518 -0.5911
vn -0.2919 0.7521 -0.5908
vn -0.2690 0.7787 -0.5668
vn 0.6313 0.7248 0.2757
vn 0.6311 0.7249 0.2760
vn 0.6382 0.7221 0.2669
vn -0.6051 0.7646 -0.2220
vn -0.6286 0.7333 -0.2589
vn -0.4544 0.8905 -0.0201
vn -0.6468 0.6430 -0.4101
vn -0.6176 0.6510 -0.4413
vn -0.7201 0.6150 -0.3212
vn -0.2868 0.9578 0.0201
vn -0.2900 0.9569 0.0149
vn -0.4771 0.8142 -0.3309
vn -0.1592 0.8534 -0.4963
vn -0.1223 0.8748 -0.4687
vn 0.0356 0.9397 -0.3401
vn -0.4710 0.6554 0.5905
vn -0.4728 0.6557 0.5887
vn -0.4705 0.6556 0.5906
vn -0.5563 0.7727 -0.3058
vn -0.5983 0.7221 -0.3473
vn -0.5981 0.7223 -0.3472
vn -0.7721 0.6347 0.0322
vn -0.5618 0.8241 -0.0730
vn -0.8357 0.5384 0.1087
vn 0.3234 0.9179 -0.2300
vn 0.4785 0.8184 -0.3181
vn 0.3252 0.9230 0.2056
vn 0.0707 0.8864 0.4575
vn 0.0710 0.8851 0.4600
vn 0.0759 0.8604 0.5040
vn 0.3128 0.9149 0.2551
vn 0.3125 0.9155 0.2533
vn 0.3115 0.9175 0.2473
vn 0.4759 0.8795 0.0008
vn 0.4774 0.8787 0.0006
vn 0.5255 0.8508 -0.0063
vn 0.2676 0.9417 -0.2037
vn 0.2677 0.9424 -0.2003
vn 0.2672 0.9388 -0.2176
vn -0.0286 0.9378 -0.3459
vn -0.0285 0.9382 -0.3449
vn -0.0347 0.9196 -0.3913
vn -0.2841 0.9498 -0.1307
vn -0.2831 0.9507 -0.1264
vn -0.2800 0.9533 -0.1131
vn -0.4440 0.8900 0.1042
vn -0.4407 0.8916 0.1039
vn -0.4943 0.8625 0.1084
vn -0.2193 0.9269 0.3046
vn -0.2195 0.9275 0.3026
vn -0.2183 0.9222 0.3191
vn 0.0239 0.9981 0.0571
vn 0.0239 0.9981 0.0567
vn 0.0208 0.9993 0.0320
vn -0.5813 0.8084 -0.0923
vn -0.5640 0.8185 -0.1097
vn -0.4182 0.8761 -0.2399
vn -0.0163 0.8648 0.5018
vn -0.2333 0.7243 0.6488
vn -0.4536 0.4881 0.7457
vn -0.5656 0.8087 0.1617
vn -0.6362 0.7559 0.1545
vn -0.6739 0.7235 0.1499
vn 0.1617 0.6925 -0.7031
vn 0.1509 0.5584 -0.8157
vn 0.1469 0.5164 -0.8436
vn 0.5086 0.8557 -0.0958
vn 0.6828 0.7251 0.0895
vn 0.7592 0.6210 0.1949
vn 0.1228 0.9228 0.3652
vn 0.2693 0.7143 0.6459
vn 0.0849 0.9533 0.2897
vn 0.3344 0.5316 0.7782
vn 0.3154 0.4133 0.8542
vn 0.3410 0.5832 0.7373
vn -0.3151 0.5032 0.8047
vn -0.2920 0.3922 0.8723
vn -0.2857 0.3645 0.8863
vn -0.2334 0.9641 0.1268
vn -0.4094 0.8541 0.3207
vn -0.1444 0.9890 0.0323
vn -0.6112 0.7914 -0.0113
vn -0.6875 0.7261 0.0089
vn -0.5811 0.8136 -0.0188
vn -0.7215 0.6597 -0.2102
vn -0.8160 0.5648 -0.1230
vn -0.6828 0.6899 -0.2405
vn -0.0334 0.9184 -0.3943
vn -0.0550 0.8986 -0.4353
vn -0.0291 0.9220 -0.3860
vn -0.2457 0.8231 -0.5120
vn -0.2812 0.7240 -0.6299
vn -0.2187 0.8775 -0.4267
vn -0.1476 0.6488 -0.7465
vn -0.1625 0.5606 -0.8120
vn -0.1399 0.6874 -0.7127
vn 0.7174 0.6750 -0.1725
vn 0.8873 0.4421 -0.1313
vn 0.6793 0.7118 -0.1785
vn 0.8673 0.4880 0.0989
vn 0.6760 0.7004 0.2290
vn 0.9239 0.3807 0.0393
vn 0.7313 0.6521 0.1999
vn 0.6345 0.7405 0.2217
vn 0.5959 0.7698 0.2287
vn 0.8285 0.5598 -0.0120
vn 0.6510 0.7591 0.0055
vn 0.7281 0.6847 -0.0317
vn -0.4253 0.6711 0.6072
vn 0.4637 0.7000 -0.5431
vn 0.0437 0.9990 -0.0018
vn 0.3076 0.8496 0.4284
vn 0.0137 0.7628 0.6464
vn 0.0255 0.7267 0.6865
vn -0.0306 0.2585 0.9655
vn 0.0042 0.7839 0.6209
vn 0.0154 0.8053 -0.5927
vn 0.0122 0.7893 -0.6139
vn -0.1209 -0.0084 -0.9926
vn 0.0778 0.6422 -0.7626
vn 0.6983 0.7001 0.1492
vn 0.6118 0.6589 0.4378
vn 0.6029 0.6343 0.4838
vn 0.6029 0.6343 0.4839
vn 0.5337 0.6692 0.5170
vn -0.3115 0.7278 -0.6109
vn 0.6232 0.7279 0.2859
vn -0.7035 0.5894 -0.3970
vn -0.5277 0.6671 -0.5258
vn -0.0553 0.9336 0.3541
vn -0.2872 0.7593 -0.5840
vn -0.4679 0.6551 0.5932
vn -0.4664 0.6553 0.5942
vn -0.4745 0.6559 0.5870
vn -0.4694 0.6582 0.5886
vn -0.5573 0.7716 -0.3067
vn -0.4754 0.8493 -0.2296
vn -0.5982 0.7223 -0.3471
vn -0.5983 0.7221 -0.3474
vn -0.6752 0.7272 0.1237
vn -0.5206 0.8286 0.2060
vn -0.9595 0.2439 -0.1409
vn -0.9346 0.2159 0.2826
vn 0.1854 0.8639 0.4683
vn 0.2036 0.9387 -0.2783
vn 0.4745 0.8208 -0.3182
vn 0.4799 0.8211 -0.3090
vn 0.0647 0.9124 0.4042
vn 0.3142 0.9120 0.2636
vn 0.4167 0.9090 0.0090
vn 0.2680 0.9444 -0.1907
vn -0.0213 0.9566 -0.2907
vn -0.2885 0.9457 -0.1497
vn -0.3788 0.9202 0.0985
vn -0.2202 0.9307 0.2920
vn 0.0269 0.9964 0.0810
vn -0.6863 0.7269 0.0251
vn 0.1625 0.9231 0.3485
vn -0.5532 0.8170 0.1628
vn 0.1635 0.7199 -0.6746
vn 0.4164 0.8918 -0.1770
vn 0.3200 0.5947 0.7375
vn 0.3062 0.3648 0.8793
vn -0.3198 0.5286 0.7863
vn -0.4997 0.7547 0.4252
vn -0.7169 0.6969 0.0172
vn -0.8430 0.5299 -0.0930
vn -0.0613 0.8923 -0.4472
vn -0.3008 0.6488 -0.6990
vn -0.1685 0.5195 -0.8377
vn 0.9169 0.3808 -0.1198
vn 0.5970 0.7563 0.2676
vn 0.7597 0.6213 0.1921
vn 0.8185 0.5742 -0.0199
vn 0.9037 0.4277 0.0212
vn 0.8821 0.4709 0.0089
vn 0.7419 0.6690 -0.0455
vt 0.411679 0.229969
vt 0.367816 0.323857
vt 0.450324 0.299939
vt 0.260719 0.512702
vt 0.214698 0.475953
vt 0.215320 0.533049
vt 0.490773 0.540033
vt 0.391486 0.486537
vt 0.371390 0.548408
vt 0.214680 0.368272
vt 0.145918 0.297471
vt 0.142388 0.369037
vt 0.581982 0.010574
vt 0.990000 0.417443
vt 0.989426 0.010000
vt 0.214861 0.238479
vt 0.351084 0.183826
vt 0.577000 0.011616
vt 0.297494 0.555983
vt 0.258139 0.540296
vt 0.201473 0.577472
vt 0.193096 0.414213
vt 0.251414 0.395621
vt 0.285748 0.348636
vt 0.292201 0.319079
vt 0.212341 0.270843
vt 0.309198 0.473842
vt 0.311531 0.528616
vt 0.263377 0.451644
vt 0.315792 0.408377
vt 0.449211 0.393118
vt 0.476976 0.478310
vt 0.359988 0.227700
vt 0.310871 0.341506
vt 0.313038 0.349585
vt 0.307482 0.381485
vt 0.492576 0.287003
vt 0.495740 0.458146
vt 0.576537 0.659840
vt 0.287767 0.356674
vt 0.292731 0.337545
vt 0.300130 0.335425
vt 0.298186 0.344005
vt 0.267498 0.357463
vt 0.300803 0.354765
vt 0.294326 0.350728
vt 0.306502 0.361295
vt 0.299121 0.363211
vt 0.331474 0.339146
vt 0.304471 0.347846
vt 0.367944 0.386922
vt 0.103456 0.376486
vt 0.110383 0.283822
vt 0.277321 0.259634
vt 0.282824 0.283621
vt 0.436726 0.196319
vt 0.483340 0.391802
vt 0.370209 0.584039
vt 0.520735 0.570730
vt 0.199430 0.479678
vt 0.207513 0.567839
vt 0.171014 0.426728
vt 0.010000 0.238563
vt 0.582557 0.418017
s 1
f 31/1/1 11/2/2 43/3/3
f 54/4/4 55/5/5 33/6/6
f 35/7/7 5/8/8 49/9/9
f 12/10/10 29/11/11 60/12/12
f 4/13/13 1/14/13 2/15/13
f 38/16/14 41/17/15 2/18/16
f 52/19/17 53/20/18 3/21/19
f 12/10/20 57/22/21 10/23/22
f 21/24/23 13/25/24 37/26/25
f 6/27/26 54/4/27 51/28/28
f 7/29/29 57/22/30 55/5/31
f 5/8/32 51/28/33 49/9/34
f 5/8/35 9/30/36 6/27/37
f 9/30/38 7/29/39 6/27/40
f 45/31/41 5/8/42 48/32/43
f 42/33/44 13/25/45 26/34/46
f 11/2/47 27/35/48 15/36/49
f 44/37/50 47/38/51 4/39/52
f 15/36/53 20/40/54 12/10/55
f 17/41/56 18/42/57 13/25/58
f 21/24/59 19/43/60 17/41/61
f 20/40/62 21/24/63 14/44/64
f 20/40/65 25/45/66 22/46/67
f 23/47/68 24/48/69 15/36/70
f 27/35/71 25/45/72 23/47/73
f 26/34/74 27/35/75 16/49/76
f 26/34/77 19/43/78 28/50/79
f 22/46/80 28/50/81 19/43/82
f 45/31/83 11/2/84 8/51/85
f 31/1/86 41/17/87 42/33/88
f 35/7/89 47/38/90 48/32/91
f 33/6/92 53/20/93 54/4/94
f 29/11/95 59/52/96 60/12/97
f 29/11/98 38/16/99 30/53/100
f 37/26/101 40/54/102 38/16/103
f 42/33/104 40/54/105 39/55/106
f 31/1/107 44/37/108 32/56/109
f 43/3/110 46/57/111 44/37/112
f 45/31/113 47/38/114 46/57/115
f 35/7/116 50/58/117 36/59/118
f 49/9/119 52/19/120 50/58/121
f 51/28/122 53/20/123 52/19/124
f 33/6/125 56/60/126 34/61/127
f 55/5/128 58/62/129 56/60/130
f 60/12/131 58/62/132 57/22/133
f 34/61/134 59/52/135 1/63/136
f 31/1/1 42/33/137 11/2/2
f 54/4/4 7/29/138 55/5/5
f 35/7/7 48/32/139 5/8/8
f 12/10/10 37/26/140 29/11/11
f 4/13/13 3/64/13 1/14/13
f 2/18/16 1/63/141 30/53/142
f 38/16/14 40/54/143 41/17/15
f 2/18/16 30/53/142 38/16/14
f 41/17/15 32/56/144 2/18/16
f 3/21/19 4/39/145 36/59/146
f 3/21/19 36/59/146 50/58/147
f 53/20/18 34/61/148 3/21/19
f 3/21/19 50/58/147 52/19/17
f 12/10/20 60/12/149 57/22/21
f 12/10/150 14/44/151 21/24/23
f 21/24/23 17/41/152 13/25/24
f 13/25/24 39/55/153 37/26/25
f 37/26/25 12/10/150 21/24/23
f 6/27/26 7/29/154 54/4/27
f 7/29/29 10/23/155 57/22/30
f 5/8/32 6/27/156 51/28/33
f 5/8/35 8/51/157 9/30/36
f 9/30/38 10/23/158 7/29/39
f 45/31/41 8/51/159 5/8/42
f 16/49/160 11/2/161 42/33/44
f 42/33/44 39/55/162 13/25/45
f 13/25/45 18/42/163 26/34/46
f 26/34/46 16/49/160 42/33/44
f 9/30/164 8/51/165 11/2/47
f 11/2/47 16/49/166 27/35/48
f 27/35/48 23/47/167 15/36/49
f 15/36/49 9/30/164 11/2/47
f 2/18/168 32/56/169 44/37/50
f 44/37/50 46/57/170 47/38/51
f 47/38/51 36/59/171 4/39/52
f 4/39/52 2/18/168 44/37/50
f 10/23/172 9/30/173 15/36/53
f 15/36/53 24/48/174 20/40/54
f 20/40/54 14/44/175 12/10/55
f 12/10/55 10/23/172 15/36/53
f 17/41/56 19/43/176 18/42/57
f 21/24/59 22/46/177 19/43/60
f 20/40/62 22/46/178 21/24/63
f 20/40/65 24/48/179 25/45/66
f 23/47/68 25/45/180 24/48/69
f 27/35/71 28/50/181 25/45/72
f 26/34/74 28/50/182 27/35/75
f 26/34/77 18/42/183 19/43/78
f 22/46/80 25/45/184 28/50/81
f 45/31/83 43/3/185 11/2/84
f 31/1/86 32/56/186 41/17/87
f 35/7/89 36/59/187 47/38/90
f 33/6/92 34/61/188 53/20/93
f 29/11/95 30/53/189 59/52/96
f 29/11/98 37/26/190 38/16/99
f 37/26/101 39/55/191 40/54/102
f 42/33/104 41/17/192 40/54/105
f 31/1/107 43/3/193 44/37/108
f 43/3/110 45/31/194 46/57/111
f 45/31/113 48/32/195 47/38/114
f 35/7/116 49/9/196 50/58/117
f 49/9/119 51/28/197 52/19/120
f 51/28/122 54/4/198 53/20/123
f 33/6/125 55/5/199 56/60/126
f 55/5/128 57/22/200 58/62/129
f 60/12/131 59/52/201 58/62/132
f 1/63/136 3/21/202 34/61/134
f 34/61/134 56/60/203 58/62/204
f 59/52/135 30/53/205 1/63/136
f 34/61/134 58/62/204 59/52/135
