# Blender 4.3.2
# www.blender.org
o hill33
v -1.010062 -0.047530 0.966736
v -1.010062 -0.047530 -1.033264
v 0.989938 -0.047530 0.966736
v 0.989938 -0.047530 -1.033264
v 0.153928 0.545746 0.572103
v 0.569500 0.553261 -0.065541
v 0.530002 0.493227 -0.573328
v 0.114571 0.887660 -0.447328
v 0.006980 1.054936 -0.364838
v -0.497675 0.592473 0.824515
v -0.710280 0.341029 -0.563216
v -0.352676 0.456639 -0.601710
v -0.863972 0.265985 -0.130920
v -0.613348 0.990618 -0.035090
v -0.876566 0.506389 0.868195
v -1.009477 0.306197 0.966137
v 0.576618 0.505087 0.221966
v 0.290090 0.527170 0.520296
v 0.688904 0.274575 0.617182
v -0.346631 0.766109 0.347105
v -0.166272 0.746621 0.285634
v -0.206953 0.927507 -0.019139
v -0.471790 0.862608 0.056677
v -0.277431 0.830662 0.231258
v -0.292790 0.871300 0.172392
v -0.249177 0.863309 0.157176
v -0.310976 0.886771 0.110863
v -0.339230 0.854124 0.184946
vn 0.1082 0.8483 -0.5184
vn -0.5797 0.6711 -0.4622
vn -0.4771 0.6699 -0.5689
vn 0.7640 0.6449 -0.0186
vn 0.8133 0.5809 -0.0333
vn 0.7131 0.6999 0.0397
vn -0.0000 -1.0000 -0.0000
vn 0.6595 0.7388 -0.1386
vn 0.2319 0.8723 0.4304
vn 0.2387 0.8692 0.4331
vn 0.2098 0.9061 0.3674
vn -0.9989 0.0448 0.0165
vn -0.7508 0.6540 -0.0928
vn -0.8353 0.5448 -0.0739
vn 0.6958 0.6570 0.2902
vn 0.4814 0.8505 0.2121
vn 0.4089 0.8917 0.1941
vn -0.9262 0.3637 -0.0992
vn -0.8826 0.4545 -0.1205
vn -0.9371 0.3364 -0.0928
vn -0.6280 0.5452 -0.5553
vn -0.6877 0.5170 -0.5097
vn -0.2816 0.6303 -0.7235
vn -0.1115 0.5037 -0.8567
vn 0.0067 0.5965 -0.8026
vn 0.0705 0.7406 -0.6682
vn 0.4361 0.8257 0.3577
vn 0.1203 0.3883 0.9137
vn 0.2707 0.0218 0.9624
vn 0.1989 0.2543 0.9464
vn -0.0542 0.8598 0.5078
vn -0.0853 0.8383 0.5386
vn -0.0230 0.8791 0.4761
vn 0.3377 0.8070 0.4844
vn 0.3514 0.7999 0.4865
vn 0.3618 0.7943 0.4880
vn 0.1268 0.9428 0.3084
vn 0.1556 0.9493 0.2733
vn 0.0842 0.9297 0.3587
vn -0.2487 0.9178 0.3096
vn -0.2471 0.9180 0.3103
vn -0.2431 0.9184 0.3120
vn -0.0756 0.9276 0.3659
vn -0.1631 0.9141 0.3713
vn 0.1373 0.8546 0.5008
vn -0.3231 0.9453 -0.0457
vn -0.8161 0.4589 -0.3513
vn 0.7055 0.6030 -0.3724
vn 0.7250 0.6888 -0.0052
vn 0.9895 -0.1311 -0.0617
vn 0.4266 0.8429 0.3280
vn 0.2055 0.9079 0.3654
vn 0.2761 0.7720 0.5726
vn -0.9979 -0.0519 0.0393
vn -0.7444 0.6612 -0.0933
vn 0.4939 0.8605 0.1247
vn 0.6067 0.7949 0.0075
vn 0.8580 0.1868 0.4785
vn 0.6929 0.6643 0.2805
vn 0.5821 0.7604 0.2878
vn 0.3702 0.8975 0.2397
vn -0.8543 0.5028 -0.1317
vn -0.9013 0.3462 -0.2604
vn 0.0487 0.8583 -0.5108
vn 0.0106 0.7940 -0.6079
vn -0.0251 0.5331 -0.8457
vn 0.6213 0.7817 -0.0545
vn -0.0573 0.7346 0.6761
vn -0.0190 0.6581 0.7527
vn 0.2550 0.7495 0.6109
vn 0.1739 -0.6543 0.7359
vn 0.5441 0.0074 0.8390
vn -0.1366 0.7982 0.5867
vn 0.3176 0.8171 0.4812
vn 0.2350 0.9568 0.1711
vn -0.2563 0.9168 0.3063
vn 0.3592 0.7673 0.5312
vn -0.1843 0.9367 0.2978
vn -0.3673 0.8182 0.4424
vt 0.336183 0.400219
vt 0.316511 0.363985
vt 0.184021 0.437494
vt 0.182942 0.241245
vt 0.360258 0.191716
vt 0.575148 0.010000
vt 0.577403 0.352516
vt 0.988633 0.766480
vt 0.990000 0.353884
vt 0.296964 0.215909
vt 0.247949 0.332013
vt 0.380794 0.345862
vt 0.382965 0.381141
vt 0.465279 0.424126
vt 0.520189 0.516461
vt 0.299887 0.551096
vt 0.055926 0.654665
vt 0.431406 0.245761
vt 0.477717 0.489746
vt 0.314652 0.421660
vt 0.190228 0.527826
vt 0.010000 0.112663
vt 0.467552 0.128385
vt 0.447614 0.282841
vt 0.571737 0.564876
vt 0.363090 0.368214
vt 0.354725 0.378831
vt 0.350486 0.364802
vt 0.341707 0.375504
vt 0.260329 0.345749
vt 0.576036 0.765113
vt 0.351895 0.371714
s 1
f 23/1/1 22/2/2 12/3/3
f 7/4/4 17/5/5 3/6/6
f 4/7/7 1/8/7 2/9/7
f 6/10/8 7/4/8 8/11/8
f 21/12/9 20/13/10 10/14/11
f 16/15/12 13/16/13 2/17/14
f 8/11/15 21/12/16 18/18/17
f 13/16/18 15/19/19 14/20/20
f 11/21/21 14/20/22 12/3/23
f 12/3/24 8/11/25 4/22/26
f 17/5/27 18/18/27 19/23/27
f 5/24/28 15/19/29 1/25/30
f 24/26/31 28/27/32 20/13/33
f 26/28/34 24/26/35 21/12/36
f 27/29/37 26/28/38 22/2/39
f 28/27/40 27/29/41 23/1/42
f 15/19/43 20/13/44 23/1/45
f 23/1/1 27/29/46 22/2/2
f 22/2/2 9/30/47 12/3/3
f 12/3/3 14/20/48 23/1/1
f 3/6/6 4/22/49 7/4/4
f 7/4/4 6/10/50 17/5/5
f 17/5/5 19/23/51 3/6/6
f 4/7/7 3/31/7 1/8/7
f 10/14/11 5/24/52 21/12/9
f 21/12/9 24/26/53 20/13/10
f 2/17/14 1/25/54 16/15/12
f 13/16/13 11/21/55 2/17/14
f 17/5/56 6/10/57 8/11/15
f 8/11/15 9/30/58 22/2/59
f 22/2/59 26/28/60 21/12/16
f 21/12/16 5/24/61 18/18/17
f 18/18/17 17/5/56 8/11/15
f 8/11/15 22/2/59 21/12/16
f 13/16/18 16/15/62 15/19/19
f 11/21/21 13/16/63 14/20/22
f 4/22/26 2/17/64 11/21/65
f 12/3/24 9/30/66 8/11/25
f 4/22/26 11/21/65 12/3/24
f 8/11/25 7/4/67 4/22/26
f 1/25/30 3/6/68 19/23/69
f 19/23/69 18/18/70 5/24/28
f 5/24/28 10/14/71 15/19/29
f 15/19/29 16/15/72 1/25/30
f 1/25/30 19/23/69 5/24/28
f 24/26/31 25/32/73 28/27/32
f 26/28/34 25/32/74 24/26/35
f 27/29/37 25/32/75 26/28/38
f 28/27/40 25/32/76 27/29/41
f 23/1/45 14/20/77 15/19/43
f 15/19/43 10/14/78 20/13/44
f 20/13/44 28/27/79 23/1/45
