# Blender 4.3.2
# www.blender.org
o Cube.007
v 1.060748 -0.380885 -0.993976
v -1.020242 -0.380885 -0.993975
v -1.060749 0.372963 -0.993975
v -1.020241 -0.380885 0.993976
v 1.060749 -0.380885 -0.493437
v -0.448013 -0.380885 0.993976
v 0.384741 -0.380885 -0.196450
v -0.144955 -0.380885 0.322635
v 0.565114 0.380885 -0.993976
v 0.981856 0.197531 -0.993976
v 0.853457 0.277128 -0.993976
v -1.020241 0.218575 0.915048
v -1.060748 0.372963 0.494055
v -1.036618 0.277128 0.711635
v -0.755215 0.372963 0.494054
v -0.448013 0.218575 0.915048
v -0.528340 0.277128 0.711635
v 0.565114 0.380885 -0.754789
v 0.981856 0.197531 -0.524046
v 0.853457 0.277128 -0.643674
v -0.529135 0.372963 0.091758
v -0.144955 0.218575 0.292026
v -0.243741 0.277128 0.179705
v 0.108636 0.372963 -0.533238
v 0.384741 0.218575 -0.227059
v 0.311870 0.277128 -0.364776
vn 0.8990 0.0223 0.4373
vn -0.9985 -0.0537 0.0111
vn -0.0000 0.1305 0.9914
vn -0.0078 0.9998 0.0197
vn -0.0000 -0.0000 -1.0000
vn 0.4462 0.0456 0.8938
vn 0.6995 0.0364 0.7137
vn -0.0000 -1.0000 -0.0000
vn 0.2719 0.9501 0.1528
vn 0.3400 0.9227 0.1819
vn 0.2400 0.9394 0.2449
vn 0.2554 0.9310 0.2607
vn 0.1877 0.9121 0.3645
vn 0.2158 0.9037 0.3697
vn 0.3386 0.9409 -0.0000
vn 0.5269 0.8499 -0.0000
vn -0.0000 0.9152 0.4031
vn -0.0000 0.9610 0.2766
vn 0.9908 0.1351 -0.0000
vn 0.9101 0.0541 0.4108
vn -1.0000 -0.0000 -0.0000
vn -0.9697 -0.2442 -0.0000
vn -0.9903 -0.1325 0.0416
vn -0.0000 1.0000 -0.0000
vn -0.0049 1.0000 -0.0000
vn 0.4001 0.1028 0.9107
vn 0.2661 0.9534 0.1424
vn 0.3070 0.9399 0.1493
vn 0.1512 0.9265 0.3447
vn 0.1611 0.9361 0.3128
vt 0.747452 0.221685
vt 0.766870 0.225187
vt 0.747452 0.225187
vt 0.613252 0.511748
vt 0.625000 0.750000
vt 0.375000 0.750000
vt 0.791405 0.436585
vt 0.742805 0.453135
vt 0.742805 0.436585
vt 0.536915 0.570203
vt 0.550337 0.589607
vt 0.483086 0.563578
vt 0.613252 0.988252
vt 0.375000 1.000000
vt 0.766870 0.253261
vt 0.747452 0.256763
vt 0.747452 0.253261
vt 0.270303 0.581944
vt 0.375000 0.500000
vt 0.125000 0.750000
vt 0.468468 0.544874
vt 0.437194 0.502099
vt 0.471864 0.498207
vt 0.452690 0.607186
vt 0.470870 0.602760
vt 0.460886 0.612770
vt 0.463173 0.568790
vt 0.499780 0.636797
vt 0.465847 0.607518
vt 0.542710 0.651700
vt 0.532726 0.661710
vt 0.504276 0.608335
vt 0.530230 0.656548
vt 0.497213 0.636782
vt 0.540923 0.667293
vt 0.551671 0.657804
vt 0.488183 0.561822
vt 0.436427 0.529303
vt 0.485265 0.525392
vt 0.763708 0.454374
vt 0.738079 0.422571
vt 0.763708 0.422571
vt 0.496156 0.506700
vt 0.451791 0.548746
vt 0.444653 0.488369
vt 0.450033 0.605377
vt 0.444988 0.585128
vt 0.461908 0.596655
vt 0.766870 0.263375
vt 0.766870 0.256763
vt 0.766870 0.221685
vt 0.576005 0.500000
vt 0.625000 0.548995
vt 0.791405 0.453135
vt 0.520118 0.503060
vt 0.531122 0.509793
vt 0.528001 0.533180
vt 0.543604 0.600610
vt 0.625000 0.951005
vt 0.576005 1.000000
vt 0.125000 0.681553
vt 0.206944 0.645303
vt 0.306553 0.500000
vt 0.433030 0.559316
vt 0.504029 0.604042
vt 0.532134 0.624814
vt 0.441280 0.589907
vt 0.738079 0.458375
vt 0.500447 0.542993
vt 0.435004 0.595138
vt 0.747452 0.263375
s 0
f 16/1/1 8/2/1 22/3/1
f 14/4/2 3/5/2 2/6/2
f 16/7/3 4/8/3 6/9/3
f 24/10/4 18/11/4 3/12/4
f 3/5/5 11/13/5 1/14/5
f 7/15/6 19/16/6 25/17/6
f 22/3/7 7/15/7 25/17/7
f 8/18/8 4/19/8 1/20/8
f 15/21/9 23/22/9 21/23/9
f 17/24/10 22/25/10 23/26/10
f 24/27/11 23/28/11 26/29/11
f 23/26/12 25/30/12 26/31/12
f 18/32/13 26/33/13 20/34/13
f 20/35/14 25/30/14 19/36/14
f 18/37/15 11/38/15 9/39/15
f 20/40/16 10/41/16 11/42/16
f 15/43/17 14/44/17 17/45/17
f 17/46/18 12/47/18 16/48/18
f 1/49/19 19/16/19 5/50/19
f 16/1/20 6/51/20 8/2/20
f 2/6/21 4/19/21 12/52/21
f 14/4/22 13/53/22 3/5/22
f 2/6/23 12/52/23 14/4/23
f 16/7/3 12/54/3 4/8/3
f 3/12/24 13/55/24 15/56/24
f 3/12/24 15/56/24 21/57/24
f 18/11/25 9/58/25 3/12/25
f 3/12/24 21/57/24 24/10/24
f 1/14/5 2/6/5 3/5/5
f 3/5/5 9/59/5 11/13/5
f 11/13/5 10/60/5 1/14/5
f 7/15/26 5/50/26 19/16/26
f 22/3/7 8/2/7 7/15/7
f 1/20/8 5/61/8 7/62/8
f 8/18/8 6/63/8 4/19/8
f 1/20/8 7/62/8 8/18/8
f 4/19/8 2/6/8 1/20/8
f 15/21/27 17/64/27 23/22/27
f 17/24/28 16/48/28 22/25/28
f 24/27/11 21/65/11 23/28/11
f 23/26/12 22/25/12 25/30/12
f 18/32/29 24/66/29 26/33/29
f 20/35/30 26/31/30 25/30/30
f 18/37/15 20/67/15 11/38/15
f 20/40/16 19/68/16 10/41/16
f 15/43/17 13/69/17 14/44/17
f 17/46/18 14/70/18 12/47/18
f 1/49/19 10/71/19 19/16/19
