# Blender 4.3.2
# www.blender.org
o tileset.046
v -1.000000 -0.375493 1.042517
v -0.975313 0.375493 1.067204
v 1.000000 -0.375493 1.042517
v 0.975313 0.375493 1.067204
v -1.000000 -0.375493 1.042517
v -0.975313 0.375493 1.067204
v -1.000000 -0.375493 -0.957483
v 1.000000 -0.375493 1.042517
v 0.975313 0.375493 1.067204
v 1.000000 -0.375493 -0.957483
v -0.000000 -0.375493 -1.067204
v -0.000000 -0.375493 1.042517
v -0.000000 0.375493 1.067204
v -0.975313 0.375493 -0.471965
v -0.983944 0.112943 -0.909314
v -0.975970 0.355508 -0.631392
v -0.977841 0.298594 -0.770493
v -0.980641 0.213417 -0.868085
v 0.983944 0.112943 -0.909314
v 0.975313 0.375493 -0.471965
v 0.980641 0.213417 -0.868086
v 0.977841 0.298594 -0.770493
v 0.975970 0.355508 -0.631394
v -0.000000 0.112943 -1.017275
v -0.000000 0.375493 -0.578978
v -0.000000 0.213417 -0.975684
v -0.000000 0.298594 -0.877783
v -0.000000 0.355508 -0.738479
vn -0.0000 0.0329 -0.9995
vn -0.0000 1.0000 -0.0000
vn -0.1085 0.1011 -0.9889
vn 0.9995 0.0329 -0.0000
vn -0.9995 0.0329 -0.0000
vn 0.1085 0.1011 -0.9889
vn -0.0000 -0.0329 0.9995
vn 0.0136 0.9921 -0.1243
vn 0.0415 0.9249 -0.3779
vn 0.0718 0.7525 -0.6547
vn 0.1009 0.3805 -0.9193
vn -0.0136 0.9921 -0.1243
vn -0.0415 0.9249 -0.3779
vn -0.0718 0.7525 -0.6547
vn -0.1009 0.3805 -0.9193
vt 0.404553 0.408761
vt 0.549004 0.353855
vt 0.402761 0.353818
vt 0.287009 0.164031
vt 0.361407 0.287554
vt 0.397530 0.182474
vt 0.241984 0.220957
vt 0.205651 0.150454
vt 0.214126 0.237176
vt 0.276802 0.101766
vt 0.297223 0.099176
vt 0.373923 0.010000
vt 0.266533 0.223190
vt 0.248625 0.218878
vt 0.262908 0.095570
vt 0.241825 0.071184
vt 0.813031 0.932100
vt 0.883977 0.876697
vt 0.810840 0.877173
vt 0.286851 0.101428
vt 0.274845 0.162001
vt 0.261419 0.159760
vt 0.268514 0.099691
vt 0.249221 0.157725
vt 0.240079 0.156199
vt 0.275611 0.228688
vt 0.257138 0.219607
vt 0.547185 0.408797
vt 0.397484 0.071358
vt 0.319199 0.337936
vt 0.884222 0.931585
s 1
f 2/1/1 3/2/1 1/3/1
f 25/4/2 6/5/2 13/6/2
f 15/7/3 11/8/3 7/9/3
f 22/10/4 20/11/4 8/12/4
f 16/13/5 18/14/5 7/9/5
f 11/8/6 19/15/6 10/16/6
f 9/17/7 12/18/7 8/19/7
f 25/4/8 23/20/8 28/21/8
f 28/21/9 22/10/9 27/22/9
f 27/22/10 21/23/10 26/24/10
f 26/24/11 19/15/11 24/25/11
f 25/4/12 16/13/12 14/26/12
f 28/21/13 17/27/13 16/13/13
f 27/22/14 18/14/14 17/27/14
f 26/24/15 15/7/15 18/14/15
f 2/1/1 4/28/1 3/2/1
f 9/29/2 20/11/2 25/4/2
f 25/4/2 14/26/2 6/5/2
f 13/6/2 9/29/2 25/4/2
f 15/7/3 24/25/3 11/8/3
f 8/12/4 10/16/4 19/15/4
f 19/15/4 21/23/4 22/10/4
f 22/10/4 23/20/4 20/11/4
f 20/11/4 9/29/4 8/12/4
f 8/12/4 19/15/4 22/10/4
f 7/9/5 5/30/5 6/5/5
f 6/5/5 14/26/5 16/13/5
f 16/13/5 17/27/5 18/14/5
f 18/14/5 15/7/5 7/9/5
f 7/9/5 6/5/5 16/13/5
f 11/8/6 24/25/6 19/15/6
f 9/17/7 13/31/7 12/18/7
f 25/4/8 20/11/8 23/20/8
f 28/21/9 23/20/9 22/10/9
f 27/22/10 22/10/10 21/23/10
f 26/24/11 21/23/11 19/15/11
f 25/4/12 28/21/12 16/13/12
f 28/21/13 27/22/13 17/27/13
f 27/22/14 26/24/14 18/14/14
f 26/24/15 24/25/15 15/7/15
