# Blender 4.3.2
# www.blender.org
o tileset.001
v -1.012344 -0.375493 0.987656
v 0.987656 -0.375493 0.987656
v 1.012344 0.375493 1.012344
v -0.964177 0.112911 1.003711
v -0.529280 0.375493 1.012344
v -0.923134 0.213397 1.007015
v -0.826074 0.298585 1.009815
v -0.687770 0.355505 1.011687
v 0.987656 -0.375493 -1.012344
v -1.012344 -0.375493 0.987656
v 0.987656 -0.375493 0.987656
v 1.012344 0.375493 1.012344
v -1.012344 -0.375493 0.476820
v 0.476820 -0.375493 -1.012344
v -0.576177 -0.375493 -0.576177
v 1.003713 0.112973 -0.964172
v 1.012344 0.375493 -0.529280
v 1.007017 0.213435 -0.923132
v 1.009815 0.298603 -0.826072
v 1.011686 0.355510 -0.687770
v -0.529280 0.375493 1.012344
v -0.964172 0.112973 1.003713
v -0.687770 0.355510 1.011687
v -0.826072 0.298603 1.009815
v -0.923132 0.213435 1.007017
v 0.595474 0.375493 -0.529280
v 0.501079 0.112976 -0.964172
v 0.563347 0.355510 -0.687770
v 0.534127 0.298604 -0.826072
v 0.512262 0.213437 -0.923131
v -0.529280 0.375493 0.595474
v -0.964172 0.112976 0.501079
v -0.687770 0.355510 0.563347
v -0.826072 0.298604 0.534127
v -0.923131 0.213437 0.512262
v -0.199848 0.375493 -0.199848
v -0.535010 0.112978 -0.535010
v -0.321325 0.355511 -0.321325
v -0.427678 0.298604 -0.427678
v -0.502714 0.213438 -0.502715
vn -0.0000 0.0329 -0.9995
vn -0.3804 0.1095 -0.9183
vn -0.0000 1.0000 -0.0000
vn -0.9952 0.0981 -0.0000
vn 0.9995 -0.0329 -0.0000
vn -0.9183 0.1095 -0.3804
vn -0.1154 0.9922 -0.0478
vn -0.3501 0.9254 -0.1450
vn -0.6059 0.7549 -0.2510
vn -0.8518 0.3873 -0.3528
vn -0.0478 0.9922 -0.1154
vn -0.1450 0.9254 -0.3501
vn -0.2510 0.7549 -0.6059
vn -0.3528 0.3873 -0.8518
vn -0.0000 0.9921 -0.1251
vn -0.0000 0.9248 -0.3805
vn -0.0000 0.7517 -0.6596
vn -0.0000 0.3782 -0.9257
vn -0.1251 0.9921 -0.0000
vn -0.3805 0.9248 -0.0000
vn -0.6596 0.7517 -0.0000
vn -0.9257 0.3782 -0.0000
vn -0.0000 0.0981 -0.9952
vn -0.0000 0.0328 -0.9995
vt 0.816652 0.517287
vt 0.838722 0.519572
vt 0.941006 0.452404
vt 0.628348 0.601876
vt 0.677957 0.676541
vt 0.653516 0.599793
vt 0.483205 0.483974
vt 0.467751 0.579510
vt 0.550597 0.629535
vt 0.682631 0.487109
vt 0.631896 0.515044
vt 0.667380 0.520538
vt 0.465881 0.470068
vt 0.619004 0.509482
vt 0.514937 0.635480
vt 0.519685 0.623590
vt 0.455209 0.585317
vt 0.511551 0.647235
vt 0.444181 0.590423
vt 0.508390 0.657095
vt 0.621773 0.602394
vt 0.623765 0.514709
vt 0.455600 0.507319
vt 0.444447 0.502296
vt 0.434884 0.498327
vt 0.434883 0.594727
vt 0.644186 0.687412
vt 0.467739 0.511391
vt 0.473632 0.477860
vt 0.461171 0.461258
vt 0.636286 0.689060
vt 0.655003 0.724830
vt 0.549066 0.640790
vt 0.549993 0.651741
vt 0.553663 0.661033
vt 0.636536 0.476448
vt 0.626937 0.475765
vt 0.697667 0.707657
vt 0.796687 0.470582
vt 0.804889 0.505249
vt 0.808832 0.512072
vt 0.827196 0.519542
vt 0.949606 0.509086
vt 0.583522 0.525910
vt 0.476868 0.414442
vt 0.462147 0.451482
vt 0.645850 0.727081
s 1
f 7/1/1 5/2/1 2/3/1
f 37/4/2 14/5/2 15/6/2
f 17/7/3 36/8/3 21/9/3
f 10/10/4 32/11/4 13/12/4
f 19/13/5 17/7/5 11/14/5
f 13/12/6 37/4/6 15/6/6
f 36/8/7 33/15/7 31/16/7
f 38/17/8 34/18/8 33/15/8
f 39/19/9 35/20/9 34/18/9
f 40/21/10 32/11/10 35/22/10
f 36/8/11 28/23/11 38/17/11
f 38/17/12 29/24/12 39/19/12
f 39/19/13 30/25/13 40/26/13
f 40/21/14 27/27/14 37/4/14
f 26/28/15 20/29/15 28/23/15
f 28/23/16 19/13/16 29/24/16
f 29/24/17 18/30/17 30/25/17
f 30/31/18 16/32/18 27/27/18
f 31/16/19 23/33/19 21/9/19
f 33/15/20 24/34/20 23/33/20
f 34/18/21 25/35/21 24/34/21
f 35/22/22 22/36/22 25/37/22
f 27/27/23 9/38/23 14/5/23
f 2/3/1 1/39/1 4/40/1
f 4/40/1 6/41/24 7/1/1
f 7/1/1 8/42/1 5/2/1
f 5/2/1 3/43/1 2/3/1
f 2/3/1 4/40/1 7/1/1
f 37/4/2 27/27/2 14/5/2
f 21/9/3 12/44/3 17/7/3
f 17/7/3 26/28/3 36/8/3
f 36/8/3 31/16/3 21/9/3
f 10/10/4 22/36/4 32/11/4
f 11/14/5 9/45/5 16/46/5
f 16/46/5 18/30/5 19/13/5
f 19/13/5 20/29/5 17/7/5
f 17/7/5 12/44/5 11/14/5
f 11/14/5 16/46/5 19/13/5
f 13/12/6 32/11/6 37/4/6
f 36/8/7 38/17/7 33/15/7
f 38/17/8 39/19/8 34/18/8
f 39/19/9 40/26/9 35/20/9
f 40/21/10 37/4/10 32/11/10
f 36/8/11 26/28/11 28/23/11
f 38/17/12 28/23/12 29/24/12
f 39/19/13 29/24/13 30/25/13
f 40/21/14 30/31/14 27/27/14
f 26/28/15 17/7/15 20/29/15
f 28/23/16 20/29/16 19/13/16
f 29/24/17 19/13/17 18/30/17
f 30/31/18 18/47/18 16/32/18
f 31/16/19 33/15/19 23/33/19
f 33/15/20 34/18/20 24/34/20
f 34/18/21 35/20/21 25/35/21
f 35/22/22 32/11/22 22/36/22
f 27/27/23 16/32/23 9/38/23
