# Blender 4.3.2
# www.blender.org
o tileset.051
v -1.000000 -0.375493 0.957483
v -1.000000 -0.375493 -1.042517
v -0.975313 0.375493 -1.067204
v 1.000000 -0.375493 0.957483
v 1.000000 -0.375493 -1.042517
v 0.975313 0.375493 -1.067204
v 0.000000 -0.375493 -1.042517
v 0.000000 0.375493 -1.067204
v 0.000000 -0.375493 1.067204
v -0.983944 0.112943 0.909314
v -0.975313 0.375493 0.471965
v -0.980641 0.213417 0.868086
v -0.977841 0.298594 0.770493
v -0.975970 0.355508 0.631394
v 0.975313 0.375493 0.471965
v 0.983944 0.112943 0.909314
v 0.975970 0.355508 0.631392
v 0.977841 0.298594 0.770493
v 0.980641 0.213417 0.868085
v 0.000000 0.112943 1.017275
v 0.000000 0.375493 0.578978
v 0.000000 0.213417 0.975684
v 0.000000 0.298594 0.877783
v 0.000000 0.355508 0.738479
v 1.000000 -0.375493 0.957483
v 1.000000 -0.375493 -1.042517
v 0.975313 0.375493 -1.067204
v 0.983943 0.112973 0.909311
v 0.975313 0.375493 0.474419
v 0.980641 0.213435 0.868271
v 0.977841 0.298603 0.771211
v 0.975970 0.355510 0.632909
vn -0.0000 -0.0329 -0.9995
vn 0.1085 0.1011 0.9889
vn -0.9995 0.0329 -0.0000
vn -0.0136 0.9921 0.1243
vn -0.0415 0.9249 0.3779
vn -0.0718 0.7525 0.6547
vn -0.1009 0.3805 0.9193
vn 0.0136 0.9921 0.1243
vn 0.0415 0.9249 0.3779
vn 0.0718 0.7525 0.6547
vn 0.1009 0.3805 0.9193
vn -0.1085 0.1011 0.9889
vn -0.9995 -0.0329 -0.0000
vn -0.0000 1.0000 -0.0000
vn -0.9995 -0.0328 -0.0000
vt 0.731155 0.783999
vt 0.660394 0.728359
vt 0.658020 0.783279
vt 0.067246 0.253816
vt 0.010000 0.198919
vt 0.046158 0.278197
vt 0.061501 0.129777
vt 0.079977 0.120700
vt 0.123586 0.011460
vt 0.802776 0.729471
vt 0.804293 0.784421
vt 0.091361 0.185359
vt 0.070897 0.126196
vt 0.079196 0.187387
vt 0.065771 0.189624
vt 0.052988 0.130504
vt 0.053572 0.191657
vt 0.046348 0.128424
vt 0.044429 0.193181
vt 0.091191 0.247962
vt 0.101562 0.250216
vt 0.081141 0.247622
vt 0.072853 0.249695
vt 0.018493 0.112200
vt 0.179128 0.522361
vt 0.179733 0.544568
vt 0.248152 0.664614
vt 0.201885 0.166939
vt 0.731583 0.729112
vt 0.165784 0.061851
vt 0.228649 0.494746
vt 0.190883 0.507488
vt 0.182797 0.513069
vt 0.178202 0.533313
vt 0.212668 0.648189
vt 0.201817 0.278055
s 1
f 7/1/1 6/2/1 5/3/1
f 16/4/2 9/5/2 4/6/2
f 13/7/3 11/8/3 2/9/3
f 3/10/1 7/1/1 2/11/1
f 21/12/4 14/13/4 24/14/4
f 24/14/5 13/7/5 23/15/5
f 23/15/6 12/16/6 22/17/6
f 22/17/7 10/18/7 20/19/7
f 21/12/8 17/20/8 15/21/8
f 24/14/9 18/22/9 17/20/9
f 23/15/10 19/23/10 18/22/10
f 22/17/11 16/4/11 19/23/11
f 9/5/12 10/18/12 1/24/12
f 31/25/13 29/26/13 26/27/13
f 8/28/14 11/8/14 15/21/14
f 7/1/1 8/29/1 6/2/1
f 16/4/2 20/19/2 9/5/2
f 2/9/3 1/24/3 10/18/3
f 10/18/3 12/16/3 13/7/3
f 13/7/3 14/13/3 11/8/3
f 11/8/3 3/30/3 2/9/3
f 2/9/3 10/18/3 13/7/3
f 3/10/1 8/29/1 7/1/1
f 21/12/4 11/8/4 14/13/4
f 24/14/5 14/13/5 13/7/5
f 23/15/6 13/7/6 12/16/6
f 22/17/7 12/16/7 10/18/7
f 21/12/8 24/14/8 17/20/8
f 24/14/9 23/15/9 18/22/9
f 23/15/10 22/17/10 19/23/10
f 22/17/11 20/19/11 16/4/11
f 9/5/12 20/19/12 10/18/12
f 26/27/13 25/31/13 28/32/13
f 28/32/13 30/33/15 31/25/13
f 31/25/13 32/34/13 29/26/13
f 29/26/13 27/35/13 26/27/13
f 26/27/13 28/32/13 31/25/13
f 8/28/14 3/30/14 11/8/14
f 11/8/14 21/12/14 15/21/14
f 15/21/14 6/36/14 8/28/14
