# Blender 4.3.2
# www.blender.org
o tileset.047
v -0.987656 -0.375493 1.000000
v -1.012344 0.375493 0.975313
v -0.987656 -0.375493 -1.000000
v -1.012344 0.375493 -0.975313
v 1.012344 -0.375493 1.000000
v 1.012344 -0.375493 -1.000000
v 0.964177 0.112911 0.983945
v 0.529280 0.375493 0.975313
v 0.923134 0.213397 0.980642
v 0.826074 0.298585 0.977841
v 0.687770 0.355505 0.975970
v 0.529280 0.375493 -0.975313
v 0.964177 0.112911 -0.983945
v 0.687770 0.355505 -0.975970
v 0.826074 0.298585 -0.977841
v 0.923134 0.213397 -0.980642
v 1.012344 -0.375493 -1.000000
v -0.987656 -0.375493 -1.000000
v -1.012344 0.375493 -0.975313
v 0.964172 0.112973 -0.983943
v 0.529280 0.375493 -0.975313
v 0.923132 0.213435 -0.980641
v 0.826072 0.298603 -0.977841
v 0.687770 0.355510 -0.975970
v 1.012344 -0.375493 1.000000
v -0.987656 -0.375493 1.000000
v -1.012344 0.375493 0.975313
v 0.529280 0.375493 0.975313
v 0.964172 0.112973 0.983943
v 0.687770 0.355510 0.975970
v 0.826072 0.298603 0.977841
v 0.923132 0.213435 0.980640
vn -0.9995 -0.0329 -0.0000
vn 0.9952 0.0981 -0.0000
vn 0.1251 0.9921 -0.0000
vn 0.3806 0.9247 -0.0000
vn 0.6596 0.7516 -0.0000
vn 0.9258 0.3781 -0.0000
vn -0.0000 1.0000 -0.0000
vn -0.0000 -0.0329 0.9995
vn -0.0000 -0.0329 -0.9995
vn -0.0000 -0.0328 0.9995
vn -0.0000 -0.0328 -0.9995
vt 0.170053 0.344213
vt 0.010000 0.341772
vt 0.129615 0.370256
vt 0.398533 0.551445
vt 0.322820 0.665746
vt 0.430803 0.557956
vt 0.260718 0.581262
vt 0.383136 0.533635
vt 0.381561 0.523023
vt 0.266844 0.596856
vt 0.386842 0.542575
vt 0.275509 0.612889
vt 0.392186 0.548705
vt 0.285019 0.626155
vt 0.374347 0.415615
vt 0.728084 0.219588
vt 0.710792 0.205642
vt 0.575051 0.179825
vt 0.102782 0.696249
vt 0.090322 0.712852
vt 0.106023 0.759667
vt 0.032827 0.278655
vt 0.293205 0.635340
vt 0.227552 0.461481
vt 0.716971 0.275188
vt 0.731776 0.238182
vt 0.732774 0.228409
vt 0.720351 0.211778
vt 0.610571 0.163478
vt 0.248152 0.664614
vt 0.212668 0.648189
vt 0.112354 0.690134
vt 0.095032 0.704042
vt 0.091300 0.722628
s 1
f 2/1/1 3/2/1 1/3/1
f 13/4/2 5/5/2 6/6/2
f 8/7/3 14/8/3 12/9/3
f 11/10/4 15/11/4 14/8/4
f 10/12/5 16/13/5 15/11/5
f 9/14/6 13/4/6 16/13/6
f 4/15/7 8/7/7 12/9/7
f 23/16/8 21/17/8 18/18/8
f 30/19/9 32/20/9 25/21/9
f 2/1/1 4/22/1 3/2/1
f 13/4/2 7/23/2 5/5/2
f 8/7/3 11/10/3 14/8/3
f 11/10/4 10/12/4 15/11/4
f 10/12/5 9/14/5 16/13/5
f 9/14/6 7/23/6 13/4/6
f 4/15/7 2/24/7 8/7/7
f 18/18/8 17/25/8 20/26/8
f 20/26/8 22/27/10 23/16/8
f 23/16/8 24/28/8 21/17/8
f 21/17/8 19/29/8 18/18/8
f 18/18/8 20/26/8 23/16/8
f 25/21/9 26/30/9 27/31/9
f 27/31/9 28/32/9 30/19/9
f 30/19/9 31/33/11 32/20/9
f 32/20/9 29/34/9 25/21/9
f 25/21/9 27/31/9 30/19/9
