# Blender 4.3.2
# www.blender.org
o tileset.049
v -1.012344 -0.375493 1.000000
v -1.012344 -0.375493 -1.000000
v 0.987656 -0.375493 1.000000
v 1.012344 0.375493 0.975313
v 0.987656 -0.375493 -1.000000
v 1.012344 0.375493 -0.975313
v -0.529280 0.375493 0.975313
v -0.964177 0.112911 0.983945
v -0.687770 0.355505 0.975970
v -0.826074 0.298585 0.977841
v -0.923134 0.213397 0.980642
v -0.964177 0.112911 -0.983945
v -0.529280 0.375493 -0.975313
v -0.923134 0.213397 -0.980642
v -0.826074 0.298585 -0.977841
v -0.687770 0.355505 -0.975970
v -1.012344 -0.375493 1.000000
v 0.987656 -0.375493 1.000000
v 1.012344 0.375493 0.975313
v -0.964172 0.112973 0.983943
v -0.529280 0.375493 0.975313
v -0.923132 0.213435 0.980640
v -0.826072 0.298603 0.977841
v -0.687770 0.355510 0.975970
v -1.012344 -0.375493 -1.000000
v 0.987656 -0.375493 -1.000000
v 1.012344 0.375493 -0.975313
v -0.529280 0.375493 -0.975313
v -0.964172 0.112973 -0.983943
v -0.687770 0.355510 -0.975970
v -0.826072 0.298603 -0.977841
v -0.923132 0.213435 -0.980640
vn -0.0000 1.0000 -0.0000
vn 0.9995 -0.0329 -0.0000
vn -0.9952 0.0981 -0.0000
vn -0.1251 0.9921 -0.0000
vn -0.3806 0.9247 -0.0000
vn -0.6596 0.7516 -0.0000
vn -0.9258 0.3781 -0.0000
vn -0.0000 -0.0329 -0.9995
vn -0.0000 -0.0329 0.9995
vn -0.0000 -0.0328 0.9995
vt 0.838722 0.519572
vt 0.948780 0.667233
vt 0.949606 0.509086
vt 0.845582 0.264503
vt 0.990000 0.209509
vt 0.843757 0.209560
vt 0.988762 0.027380
vt 0.843705 0.063317
vt 0.989948 0.063265
vt 0.826431 0.655730
vt 0.837963 0.655795
vt 0.827196 0.519542
vt 0.815868 0.657896
vt 0.845307 0.010051
vt 0.988517 0.019443
vt 0.988309 0.010000
vt 0.845105 0.019494
vt 0.704814 0.432452
vt 0.687490 0.418545
vt 0.551689 0.393042
vt 0.549066 0.640790
vt 0.553663 0.661033
vt 0.599517 0.679352
vt 0.988214 0.264452
vt 0.844867 0.027431
vt 0.816652 0.517287
vt 0.693829 0.488078
vt 0.708549 0.451037
vt 0.709525 0.441262
vt 0.697063 0.424660
vt 0.587171 0.376613
vt 0.619004 0.509482
vt 0.583522 0.525910
vt 0.550597 0.629535
vt 0.549993 0.651741
vt 0.561749 0.666613
s 1
f 13/1/1 4/2/1 6/3/1
f 6/4/2 3/5/2 5/6/2
f 8/7/3 2/8/3 1/9/3
f 13/1/4 9/10/4 7/11/4
f 16/12/5 10/13/5 9/10/5
f 15/14/6 11/15/6 10/16/6
f 14/17/7 8/7/7 11/15/7
f 23/18/8 21/19/8 18/20/8
f 30/21/9 32/22/9 25/23/9
f 13/1/1 7/11/1 4/2/1
f 6/4/2 4/24/2 3/5/2
f 8/7/3 12/25/3 2/8/3
f 13/1/4 16/12/4 9/10/4
f 16/12/5 15/26/5 10/13/5
f 15/14/6 14/17/6 11/15/6
f 14/17/7 12/25/7 8/7/7
f 18/20/8 17/27/8 20/28/8
f 20/28/8 22/29/8 23/18/8
f 23/18/8 24/30/8 21/19/8
f 21/19/8 19/31/8 18/20/8
f 18/20/8 20/28/8 23/18/8
f 25/23/9 26/32/9 27/33/9
f 27/33/9 28/34/9 30/21/9
f 30/21/9 31/35/10 32/22/9
f 32/22/9 29/36/9 25/23/9
f 25/23/9 27/33/9 30/21/9
