# Blender 4.3.2
# www.blender.org
o tileset.005
v -0.987656 -0.375493 1.012344
v -0.987656 -0.375493 -0.987656
v -1.012344 0.375493 -1.012344
v -1.012344 0.375493 0.526826
v -1.003713 0.112943 0.964175
v -1.011687 0.355508 0.686253
v -1.009815 0.298594 0.825354
v -1.007015 0.213417 0.922946
v -0.987656 -0.375493 -0.987656
v -1.012344 0.375493 -1.012344
v 1.012344 -0.375493 -0.987656
v 0.964177 0.112911 -1.003711
v 0.529280 0.375493 -1.012344
v 0.923134 0.213397 -1.007015
v 0.826074 0.298585 -1.009815
v 0.687770 0.355505 -1.011687
v -0.987656 -0.375493 1.012344
v 1.012344 -0.375493 -0.987656
v -1.012344 0.375493 -1.012344
v 1.012344 -0.375493 -0.476820
v -0.476820 -0.375493 1.012344
v 0.576177 -0.375493 0.576177
v -1.003713 0.112973 0.964172
v -1.012344 0.375493 0.529280
v -1.007015 0.213435 0.923132
v -1.009815 0.298603 0.826072
v -1.011687 0.355510 0.687770
v 0.529280 0.375493 -1.012344
v 0.964172 0.112973 -1.003713
v 0.687770 0.355510 -1.011687
v 0.826072 0.298603 -1.009815
v 0.923132 0.213435 -1.007017
v -0.595472 0.375493 0.529280
v -0.501079 0.112976 0.964172
v -0.563347 0.355510 0.687770
v -0.534127 0.298604 0.826072
v -0.512262 0.213437 0.923131
v 0.529280 0.375493 -0.595474
v 0.964172 0.112976 -0.501079
v 0.687770 0.355510 -0.563347
v 0.826072 0.298604 -0.534127
v 0.923132 0.213437 -0.512262
v 0.199848 0.375493 0.199848
v 0.535010 0.112978 0.535010
v 0.321325 0.355511 0.321325
v 0.427678 0.298604 0.427678
v 0.502715 0.213438 0.502714
vn 0.9995 0.0329 -0.0000
vn -0.0000 0.0329 0.9995
vn 0.3804 0.1095 0.9183
vn -0.0000 1.0000 -0.0000
vn 0.9952 0.0981 -0.0000
vn 0.9183 0.1095 0.3804
vn 0.1154 0.9922 0.0478
vn 0.3501 0.9254 0.1450
vn 0.6059 0.7549 0.2510
vn 0.8518 0.3873 0.3528
vn 0.8518 0.3872 0.3528
vn 0.0478 0.9922 0.1154
vn 0.1450 0.9254 0.3501
vn 0.2510 0.7549 0.6059
vn 0.3528 0.3873 0.8518
vn -0.0000 0.9921 0.1251
vn -0.0000 0.9248 0.3805
vn -0.0000 0.7517 0.6596
vn -0.0000 0.3782 0.9257
vn 0.1251 0.9921 -0.0000
vn 0.3805 0.9248 -0.0000
vn 0.6596 0.7517 -0.0000
vn 0.9257 0.3782 -0.0000
vn -0.0000 0.0981 0.9952
vn 0.9995 0.0328 -0.0000
vn -0.0000 0.0328 0.9995
vt 0.091191 0.247962
vt 0.072853 0.249695
vt 0.046158 0.278197
vt 0.223224 0.475797
vt 0.220041 0.452507
vt 0.129615 0.370256
vt 0.746844 0.350666
vt 0.798341 0.424041
vt 0.771950 0.347941
vt 0.179733 0.544568
vt 0.096892 0.594599
vt 0.112354 0.690134
vt 0.798182 0.234551
vt 0.748176 0.263771
vt 0.783789 0.268358
vt 0.084748 0.666791
vt 0.096886 0.662719
vt 0.084350 0.588794
vt 0.073595 0.671815
vt 0.073321 0.583689
vt 0.064032 0.675785
vt 0.740285 0.351350
vt 0.740040 0.263644
vt 0.144073 0.538625
vt 0.140686 0.526871
vt 0.137525 0.517011
vt 0.064023 0.579385
vt 0.764859 0.435769
vt 0.148823 0.550515
vt 0.178202 0.533313
vt 0.179128 0.522361
vt 0.182797 0.513069
vt 0.757003 0.437619
vt 0.776627 0.472900
vt 0.102782 0.696249
vt 0.095032 0.704042
vt 0.090322 0.712852
vt 0.751831 0.225069
vt 0.742218 0.224632
vt 0.818839 0.454644
vt 0.178243 0.339408
vt 0.201817 0.278055
vt 0.101562 0.250216
vt 0.081141 0.247622
vt 0.067246 0.253816
vt 0.178454 0.507326
vt 0.213995 0.491002
vt 0.219976 0.485168
vt 0.223246 0.464326
vt 0.170053 0.344213
vt 0.212668 0.648189
vt 0.767534 0.475383
s 1
f 6/1/1 8/2/1 1/3/1
f 15/4/2 13/5/2 9/6/2
f 44/7/3 21/8/3 22/9/3
f 24/10/4 43/11/4 28/12/4
f 18/13/5 39/14/5 20/15/5
f 20/15/6 44/7/6 22/9/6
f 43/11/7 40/16/7 38/17/7
f 45/18/8 41/19/8 40/16/8
f 46/20/9 42/21/9 41/19/9
f 47/22/10 39/14/11 42/23/11
f 43/11/12 35/24/12 45/18/12
f 45/18/13 36/25/13 46/20/13
f 46/20/14 37/26/14 47/27/14
f 47/22/15 34/28/15 44/7/15
f 33/29/16 27/30/16 35/24/16
f 35/24/17 26/31/17 36/25/17
f 36/25/18 25/32/18 37/26/18
f 37/33/19 23/34/19 34/28/19
f 38/17/20 30/35/20 28/12/20
f 40/16/21 31/36/21 30/35/21
f 41/19/22 32/37/22 31/36/22
f 42/23/23 29/38/23 32/39/23
f 34/28/24 17/40/24 21/8/24
f 1/3/1 2/41/1 3/42/1
f 3/42/1 4/43/25 6/1/1
f 6/1/1 7/44/1 8/2/1
f 8/2/1 5/45/1 1/3/1
f 1/3/1 3/42/1 6/1/1
f 9/6/2 11/46/2 12/47/2
f 12/47/2 14/48/26 15/4/2
f 15/4/2 16/49/2 13/5/2
f 13/5/2 10/50/2 9/6/2
f 9/6/2 12/47/2 15/4/2
f 44/7/3 34/28/3 21/8/3
f 28/12/4 19/51/4 24/10/4
f 24/10/4 33/29/4 43/11/4
f 43/11/4 38/17/4 28/12/4
f 18/13/5 29/38/5 39/14/5
f 20/15/6 39/14/6 44/7/6
f 43/11/7 45/18/7 40/16/7
f 45/18/8 46/20/8 41/19/8
f 46/20/9 47/27/9 42/21/9
f 47/22/10 44/7/10 39/14/11
f 43/11/12 33/29/12 35/24/12
f 45/18/13 35/24/13 36/25/13
f 46/20/14 36/25/14 37/26/14
f 47/22/15 37/33/15 34/28/15
f 33/29/16 24/10/16 27/30/16
f 35/24/17 27/30/17 26/31/17
f 36/25/18 26/31/18 25/32/18
f 37/33/19 25/52/19 23/34/19
f 38/17/20 40/16/20 30/35/20
f 40/16/21 41/19/21 31/36/21
f 41/19/22 42/21/22 32/37/22
f 42/23/23 39/14/23 29/38/23
f 34/28/24 23/34/24 17/40/24
