# Blender 4.3.2
# www.blender.org
mtllib tile[end].mtl
o tileset.053
v -1.380098 -0.375493 0.000000
v -1.403639 0.375493 0.012343
v 0.526953 -0.375493 0.000000
v 0.066339 0.375493 0.012343
v 0.481026 0.112911 0.008028
v 0.217463 0.355505 0.012015
v 0.349340 0.298585 0.011079
v 0.441889 0.213397 0.009679
v 0.526953 -0.375493 0.000000
v -1.380098 -0.375493 -1.000000
v -1.380098 -0.375493 0.000000
v -1.403639 0.375493 0.012343
v -0.893003 -0.375493 -1.000000
v 0.526953 -0.375493 -0.255418
v 0.111058 -0.375493 -0.781917
v 0.481020 0.112973 0.008029
v 0.066339 0.375493 0.012343
v 0.441887 0.213435 0.009680
v 0.349338 0.298603 0.011079
v 0.217463 0.355510 0.012015
v -1.403639 0.375493 -0.758468
v -1.395410 0.112973 -0.975914
v -1.403011 0.355510 -0.837713
v -1.401228 0.298603 -0.906863
v -1.398558 0.213435 -0.955394
v 0.066339 0.375493 -0.196091
v 0.481020 0.112976 -0.243289
v 0.217463 0.355510 -0.212155
v 0.349338 0.298604 -0.226765
v 0.441885 0.213437 -0.237697
v -1.006143 0.375493 -0.758468
v -0.916135 0.112976 -0.975914
v -0.975510 0.355510 -0.837713
v -0.947648 0.298604 -0.906864
v -0.926798 0.213437 -0.955394
v -0.247785 0.375493 -0.593752
v 0.071803 0.112978 -0.761333
v -0.131950 0.355511 -0.654491
v -0.030541 0.298604 -0.707667
v 0.041008 0.213438 -0.745185
v -1.380098 -0.375493 1.000000
v -1.380098 -0.375493 0.000000
v -1.403639 0.375493 -0.012344
v -1.403639 0.375493 0.757241
v -1.395408 0.112943 0.975916
v -1.403011 0.355508 0.836955
v -1.401228 0.298594 0.906505
v -1.398558 0.213417 0.955301
v -1.380098 -0.375493 0.000000
v -1.403639 0.375493 -0.012344
v 0.526953 -0.375493 0.000000
v 0.481026 0.112911 -0.008027
v 0.066339 0.375493 -0.012344
v 0.441889 0.213397 -0.009679
v 0.349340 0.298585 -0.011079
v 0.217463 0.355505 -0.012015
v -1.380098 -0.375493 1.000000
v 0.526953 -0.375493 0.000000
v -1.403639 0.375493 -0.012344
v 0.526953 -0.375493 0.255419
v -0.893003 -0.375493 1.000000
v 0.111058 -0.375493 0.781917
v -1.395410 0.112973 0.975914
v -1.403639 0.375493 0.758468
v -1.398558 0.213435 0.955394
v -1.401228 0.298603 0.906864
v -1.403011 0.355510 0.837713
v 0.066339 0.375493 -0.012344
v 0.481020 0.112973 -0.008028
v 0.217463 0.355510 -0.012015
v 0.349338 0.298603 -0.011079
v 0.441887 0.213435 -0.009680
v -1.006141 0.375493 0.758468
v -0.916135 0.112976 0.975914
v -0.975510 0.355510 0.837713
v -0.947646 0.298604 0.906864
v -0.926798 0.213437 0.955394
v 0.066339 0.375493 0.196091
v 0.481020 0.112976 0.243289
v 0.217463 0.355510 0.212155
v 0.349338 0.298604 0.226765
v 0.441887 0.213437 0.237697
v -0.247783 0.375493 0.593752
v 0.071803 0.112978 0.761333
v -0.131950 0.355511 0.654491
v -0.030541 0.298604 0.707667
v 0.041008 0.213438 0.745185
vn -0.0000 0.0164 -0.9999
vn 0.7816 0.0888 -0.6174
vn -0.0000 1.0000 -0.0000
vn -0.0000 0.0492 -0.9988
vn -0.9995 -0.0313 -0.0000
vn 0.2119 0.0581 -0.9756
vn 0.0492 0.9728 -0.2263
vn 0.1300 0.7907 -0.5983
vn 0.1813 0.5200 -0.8347
vn 0.2072 0.2169 -0.9540
vn 0.2072 0.2168 -0.9540
vn 0.1205 0.9881 -0.0952
vn 0.3541 0.8924 -0.2797
vn 0.5740 0.6819 -0.4534
vn 0.7429 0.3221 -0.5868
vn 0.1311 0.9914 -0.0000
vn 0.3962 0.9182 -0.0000
vn 0.6772 0.7358 -0.0000
vn 0.9318 0.3630 -0.0000
vn -0.0000 0.9696 -0.2445
vn -0.0000 0.7722 -0.6354
vn -0.0000 0.7721 -0.6354
vn -0.0000 0.4951 -0.8688
vn -0.0000 0.2001 -0.9798
vn 0.9956 0.0936 -0.0000
vn 0.9995 0.0313 -0.0000
vn -0.0000 0.0164 0.9999
vn 0.2119 0.0581 0.9756
vn 0.7816 0.0888 0.6174
vn 0.1205 0.9881 0.0952
vn 0.3541 0.8924 0.2797
vn 0.5740 0.6819 0.4534
vn 0.7429 0.3221 0.5868
vn 0.7429 0.3220 0.5868
vn 0.0492 0.9728 0.2263
vn 0.1300 0.7907 0.5983
vn 0.1299 0.7907 0.5983
vn 0.1813 0.5200 0.8347
vn 0.2072 0.2169 0.9540
vn 0.2072 0.2168 0.9540
vn -0.0000 0.9696 0.2445
vn -0.0000 0.7722 0.6354
vn -0.0000 0.4951 0.8688
vn -0.0000 0.2001 0.9798
vn -0.0000 0.0492 0.9988
vn -0.9995 -0.0314 -0.0000
vn 0.9995 0.0314 -0.0000
vn 0.9995 0.0313 -0.0001
vt 0.383136 0.533635
vt 0.392186 0.548705
vt 0.430803 0.557956
vt 0.393262 0.731759
vt 0.444550 0.805280
vt 0.418376 0.729106
vt 0.710792 0.205642
vt 0.726463 0.110141
vt 0.643731 0.059928
vt 0.444929 0.615790
vt 0.394841 0.644868
vt 0.430440 0.649557
vt 0.645288 0.048677
vt 0.640737 0.028423
vt 0.594925 0.010000
vt 0.679405 0.054064
vt 0.674629 0.065944
vt 0.739018 0.104364
vt 0.682817 0.042317
vt 0.750058 0.099283
vt 0.686000 0.032464
vt 0.386700 0.732425
vt 0.386704 0.644718
vt 0.738450 0.182360
vt 0.749592 0.187408
vt 0.759146 0.191399
vt 0.759366 0.094999
vt 0.411035 0.816913
vt 0.726320 0.178260
vt 0.720351 0.211778
vt 0.728084 0.219588
vt 0.732774 0.228409
vt 0.403174 0.818741
vt 0.422697 0.854077
vt 0.644386 0.037724
vt 0.398605 0.606177
vt 0.388993 0.605712
vt 0.464961 0.835941
vt 0.091191 0.247962
vt 0.072853 0.249695
vt 0.046158 0.278197
vt 0.223224 0.475797
vt 0.220041 0.452507
vt 0.129615 0.370256
vt 0.746844 0.350666
vt 0.798341 0.424041
vt 0.771950 0.347941
vt 0.179733 0.544568
vt 0.096892 0.594599
vt 0.112354 0.690134
vt 0.798182 0.234551
vt 0.748176 0.263771
vt 0.783789 0.268358
vt 0.084748 0.666791
vt 0.096886 0.662719
vt 0.084350 0.588794
vt 0.073595 0.671815
vt 0.073321 0.583689
vt 0.064032 0.675785
vt 0.740285 0.351350
vt 0.740040 0.263644
vt 0.144073 0.538625
vt 0.140686 0.526871
vt 0.137525 0.517011
vt 0.064023 0.579385
vt 0.764859 0.435769
vt 0.148823 0.550515
vt 0.178202 0.533313
vt 0.179128 0.522361
vt 0.182797 0.513069
vt 0.757003 0.437619
vt 0.776627 0.472900
vt 0.102782 0.696249
vt 0.095032 0.704042
vt 0.090322 0.712852
vt 0.751831 0.225069
vt 0.742218 0.224632
vt 0.818839 0.454644
vt 0.431383 0.412982
vt 0.374347 0.415615
vt 0.381561 0.523023
vt 0.386842 0.542575
vt 0.398533 0.551445
vt 0.610571 0.163478
vt 0.575051 0.179825
vt 0.632663 0.022825
vt 0.413597 0.856535
vt 0.178243 0.339408
vt 0.201817 0.278055
vt 0.101562 0.250216
vt 0.081141 0.247622
vt 0.067246 0.253816
vt 0.178454 0.507326
vt 0.213995 0.491002
vt 0.219976 0.485168
vt 0.223246 0.464326
vt 0.170053 0.344213
vt 0.212668 0.648189
vt 0.767534 0.475383
s 1
f 6/1/1 8/2/1 3/3/1
f 37/4/2 14/5/2 15/6/2
f 17/7/3 36/8/3 21/9/3
f 10/10/4 32/11/4 13/12/4
f 23/13/5 25/14/5 10/15/5
f 13/12/6 37/4/6 15/6/6
f 36/8/7 33/16/7 31/17/7
f 38/18/8 34/19/8 33/16/8
f 39/20/9 35/21/9 34/19/9
f 40/22/10 32/11/11 35/23/11
f 36/8/12 28/24/12 38/18/12
f 38/18/13 29/25/13 39/20/13
f 39/20/14 30/26/14 40/27/14
f 40/22/15 27/28/15 37/4/15
f 26/29/16 20/30/16 28/24/16
f 28/24/17 19/31/17 29/25/17
f 29/25/18 18/32/18 30/26/18
f 30/33/19 16/34/19 27/28/19
f 31/17/20 23/13/20 21/9/20
f 33/16/21 24/35/21 23/13/22
f 34/19/23 25/14/23 24/35/23
f 35/23/24 22/36/24 25/37/24
f 27/28/25 9/38/25 14/5/25
f 46/39/26 48/40/26 41/41/26
f 55/42/27 53/43/27 49/44/27
f 84/45/28 61/46/28 62/47/28
f 64/48/3 83/49/3 68/50/3
f 58/51/25 79/52/25 60/53/25
f 60/53/29 84/45/29 62/47/29
f 83/49/30 80/54/30 78/55/30
f 85/56/31 81/57/31 80/54/31
f 86/58/32 82/59/32 81/57/32
f 87/60/33 79/52/33 82/61/34
f 83/49/35 75/62/35 85/56/35
f 85/56/36 76/63/37 86/58/36
f 86/58/38 77/64/38 87/65/38
f 87/60/39 74/66/40 84/45/39
f 73/67/41 67/68/41 75/62/41
f 75/62/42 66/69/42 76/63/42
f 76/63/43 65/70/43 77/64/43
f 77/71/44 63/72/44 74/66/44
f 78/55/16 70/73/16 68/50/16
f 80/54/17 71/74/17 70/73/17
f 81/57/18 72/75/18 71/74/18
f 82/61/19 69/76/19 72/77/19
f 74/66/45 57/78/45 61/46/45
f 3/3/1 1/79/1 2/80/1
f 2/80/1 4/81/1 6/1/1
f 6/1/1 7/82/1 8/2/1
f 8/2/1 5/83/1 3/3/1
f 3/3/1 2/80/1 6/1/1
f 37/4/2 27/28/2 14/5/2
f 21/9/3 12/84/3 17/7/3
f 17/7/3 26/29/3 36/8/3
f 36/8/3 31/17/3 21/9/3
f 10/10/4 22/36/4 32/11/4
f 10/15/5 11/85/5 12/84/5
f 12/84/5 21/9/46 23/13/5
f 23/13/5 24/35/46 25/14/5
f 25/14/5 22/86/5 10/15/5
f 10/15/5 12/84/5 23/13/5
f 13/12/6 32/11/6 37/4/6
f 36/8/7 38/18/7 33/16/7
f 38/18/8 39/20/8 34/19/8
f 39/20/9 40/27/9 35/21/9
f 40/22/10 37/4/10 32/11/11
f 36/8/12 26/29/12 28/24/12
f 38/18/13 28/24/13 29/25/13
f 39/20/14 29/25/14 30/26/14
f 40/22/15 30/33/15 27/28/15
f 26/29/16 17/7/16 20/30/16
f 28/24/17 20/30/17 19/31/17
f 29/25/18 19/31/18 18/32/18
f 30/33/19 18/87/19 16/34/19
f 31/17/20 33/16/20 23/13/20
f 33/16/21 34/19/21 24/35/21
f 34/19/23 35/21/23 25/14/23
f 35/23/24 32/11/24 22/36/24
f 27/28/25 16/34/25 9/38/25
f 41/41/26 42/88/26 43/89/26
f 43/89/26 44/90/47 46/39/26
f 46/39/26 47/91/47 48/40/26
f 48/40/26 45/92/48 41/41/26
f 41/41/26 43/89/26 46/39/26
f 49/44/27 51/93/27 52/94/27
f 52/94/27 54/95/27 55/42/27
f 55/42/27 56/96/27 53/43/27
f 53/43/27 50/97/27 49/44/27
f 49/44/27 52/94/27 55/42/27
f 84/45/28 74/66/28 61/46/28
f 68/50/3 59/98/3 64/48/3
f 64/48/3 73/67/3 83/49/3
f 83/49/3 78/55/3 68/50/3
f 58/51/25 69/76/25 79/52/25
f 60/53/29 79/52/29 84/45/29
f 83/49/30 85/56/30 80/54/30
f 85/56/31 86/58/31 81/57/31
f 86/58/32 87/65/32 82/59/32
f 87/60/33 84/45/33 79/52/33
f 83/49/35 73/67/35 75/62/35
f 85/56/36 75/62/37 76/63/37
f 86/58/38 76/63/38 77/64/38
f 87/60/39 77/71/40 74/66/40
f 73/67/41 64/48/41 67/68/41
f 75/62/42 67/68/42 66/69/42
f 76/63/43 66/69/43 65/70/43
f 77/71/44 65/99/44 63/72/44
f 78/55/16 80/54/16 70/73/16
f 80/54/17 81/57/17 71/74/17
f 81/57/18 82/59/18 72/75/18
f 82/61/19 79/52/19 69/76/19
f 74/66/45 63/72/45 57/78/45
