# Blender 4.3.2
# www.blender.org
o tileset.048
v -1.000000 -0.375493 1.000000
v -0.975313 0.375493 0.975313
v -1.000000 -0.375493 -1.000000
v -0.975313 0.375493 -0.975313
v 1.000000 -0.375493 1.000000
v 0.975313 0.375493 0.975313
v 1.000000 -0.375493 -1.000000
v 0.975313 0.375493 -0.975313
v -1.000000 -0.375493 -1.000000
v -0.975313 0.375493 -0.975313
v -0.000000 -0.375493 -1.000000
v -0.000000 0.375493 -0.975313
vn -0.9995 0.0329 -0.0000
vn 0.9995 0.0329 -0.0000
vn -0.0000 0.0329 0.9995
vn -0.0000 1.0000 -0.0000
vn -0.0000 -0.0329 0.9995
vt 0.326837 0.668847
vt 0.381795 0.813279
vt 0.381780 0.667036
vt 0.763401 0.012059
vt 0.819010 0.156241
vt 0.818335 0.010000
vt 0.547250 0.152669
vt 0.402798 0.207575
vt 0.549041 0.207612
vt 0.404653 0.010000
vt 0.547286 0.010036
vt 0.884222 0.931585
vt 0.883977 0.876697
vt 0.807522 0.929121
vt 0.326852 0.811479
vt 0.764059 0.154690
vt 0.404617 0.152633
vt 0.955416 0.931464
vt 0.957116 0.876519
vt 0.805463 0.874187
s 1
f 2/1/1 3/2/1 1/3/1
f 8/4/2 5/5/2 7/6/2
f 6/7/3 1/8/3 5/9/3
f 4/10/4 6/7/4 8/11/4
f 12/12/5 11/13/5 8/14/5
f 2/1/1 4/15/1 3/2/1
f 8/4/2 6/16/2 5/5/2
f 6/7/3 2/17/3 1/8/3
f 4/10/4 2/17/4 6/7/4
f 12/12/5 10/18/5 9/19/5
f 11/13/5 7/20/5 8/14/5
f 12/12/5 9/19/5 11/13/5
